<?xml version="1.0" standalone="no"?>
<!DOCTYPE svg PUBLIC "-//W3C//DTD SVG 20010904//EN"
 "http://www.w3.org/TR/2001/REC-SVG-20010904/DTD/svg10.dtd">
<svg version="1.0" xmlns="http://www.w3.org/2000/svg"
 width="400.000000pt" height="67.000000pt" viewBox="0 0 300.000000 67.000000"
 preserveAspectRatio="xMidYMid meet">
<metadata>
Created by Gideon Ansah 1.10, written by Peter Selinger 2001-2022
</metadata>
<g transform="translate(0.000000,67.000000) scale(0.100000,-0.100000)"
fill="#000000" stroke="none">
<path d="M32 590 c-6 -41 -9 -76 -7 -78 1 -2 23 18 48 45 l46 48 123 5 c68 3
124 5 126 4 2 -1 -45 -75 -104 -165 -120 -184 -223 -348 -248 -396 l-17 -33
231 0 230 0 4 22 c2 13 8 44 14 70 5 26 7 50 4 52 -2 3 -24 -16 -47 -42 l-43
-47 -141 -3 -142 -4 124 184 c124 182 253 395 246 403 -3 2 -102 5 -221 7
l-216 3 -10 -75z"/>
<path d="M1806 559 c-3 -8 -30 -84 -60 -169 -92 -263 -94 -267 -126 -282 -17
-7 -30 -16 -30 -19 0 -3 34 -5 75 -5 41 0 75 4 75 8 0 5 -6 8 -14 8 -26 0 -26
16 -4 89 l21 72 65 -3 64 -3 28 -70 c27 -68 28 -70 9 -79 -35 -17 -19 -22 66
-22 84 0 109 10 59 22 -22 6 -35 25 -74 108 -27 56 -67 155 -91 221 -45 128
-55 147 -63 124z m30 -184 l21 -75 -50 0 c-43 0 -48 2 -42 18 4 9 15 43 23 75
9 31 19 57 22 57 3 0 14 -34 26 -75z"/>
<path d="M2182 552 c-83 -30 -124 -72 -148 -150 -38 -129 25 -266 142 -306 62
-21 194 -21 234 -1 30 15 30 16 30 106 0 82 2 91 20 96 39 10 19 20 -52 26
-81 6 -105 -4 -62 -25 27 -12 29 -16 30 -86 2 -83 -6 -92 -78 -92 -82 1 -160
56 -195 137 -16 39 -17 121 -2 160 30 80 137 135 220 113 48 -13 89 -50 89
-80 0 -11 4 -20 9 -20 13 0 21 27 21 75 0 40 -2 43 -32 49 -87 17 -173 17
-226 -2z"/>
<path d="M2660 550 c-105 -36 -160 -133 -148 -262 9 -86 97 -181 196 -209 92
-26 211 30 259 120 48 92 22 232 -58 308 -68 64 -148 78 -249 43z m171 -43
c117 -79 133 -273 30 -360 -86 -72 -206 -35 -258 80 -49 108 -17 244 68 286
50 24 119 22 160 -6z"/>
<path d="M524 549 c-2 -3 8 -11 21 -17 l25 -12 0 -206 c0 -197 -1 -206 -20
-211 -46 -12 -15 -23 65 -23 50 0 85 4 85 10 0 6 -8 10 -18 10 -35 0 -42 21
-42 124 l0 101 122 -1 123 -1 3 -74 c4 -97 -4 -136 -28 -144 -44 -14 -15 -25
65 -25 50 0 85 4 85 10 0 6 -6 10 -14 10 -8 0 -22 7 -30 16 -13 13 -16 46 -16
210 l0 194 28 12 c26 12 26 13 -21 16 -26 2 -67 2 -90 0 l-42 -3 30 -15 c29
-15 30 -18 33 -93 l3 -77 -126 0 -125 0 0 81 c0 72 2 81 20 86 11 3 20 9 20
13 0 10 -150 18 -156 9z"/>
<path d="M1034 549 c-2 -3 8 -11 21 -17 l25 -12 0 -195 c0 -182 -1 -196 -20
-215 -11 -11 -20 -22 -20 -25 0 -3 36 -5 80 -5 81 0 98 7 58 25 -23 10 -23 13
-26 217 -2 200 -2 207 18 213 11 3 20 9 20 13 0 9 -150 9 -156 1z"/>
<path d="M1232 549 c2 -8 14 -15 26 -17 28 -4 56 -59 112 -217 56 -159 98
-251 109 -239 5 5 44 92 86 194 96 231 109 256 135 263 43 11 17 22 -51 20
-76 -2 -93 -7 -59 -18 19 -6 21 -12 15 -41 -3 -19 -26 -85 -51 -147 -25 -61
-50 -123 -56 -137 -12 -29 -3 -46 -77 148 -28 74 -51 141 -51 149 0 9 8 22 18
29 15 12 11 13 -33 14 -27 0 -67 3 -89 7 -31 5 -38 3 -34 -8z"/>
</g>
</svg>
