<svg version="1.1" id="Calque_1" xmlns="http://www.w3.org/2000/svg" x="0" y="0" viewBox="0 0 400 300" xml:space="preserve"><style>.st1{fill:#fff}</style><path id="XMLID_1_" fill="#00d38d" d="M0 0h400v300H0z"/><g id="Layer_2"><g id="XMLID_20_"><path id="XMLID_11_" class="st1" d="M185.8 130.1c2.7 1.2 2.9 2.1.8 6.1-2.2 4.2-2.7 4.4-5.4 3.4-3.4-1.5-7.7-2.5-10.5-2.5-4.5 0-7.6 1.6-7.6 4.1 0 8.2 26.1 3.8 26.1 21.2 0 8.8-7.5 14.7-18.9 14.7-5.9 0-13.3-2-18.4-4.5-2.5-1.3-2.7-2-.5-6.2 1.9-3.7 2.5-4 5.2-2.9 4.3 1.9 9.8 3.4 13.5 3.4 4.2 0 6.9-1.7 6.9-4.2 0-8-26.6-4.2-26.6-21.1 0-9 7.5-15 18.7-15 5.5-.2 12.1 1.4 16.7 3.5z"/><path id="XMLID_10_" class="st1" d="M206.9 109.4v65.1c0 1-1 2-2.5 2h-6.8c-1.5 0-2.5-1-2.5-2v-65.1c0-3.2.9-3.5 5.9-3.5 5.7-.1 5.9.3 5.9 3.5z"/><path id="XMLID_23_" class="st1" d="M255.5 145.9v28c0 1.5-1 2.5-2.5 2.5h-6.8c-1.5 0-2.7-1.1-2.5-2.7l.1-3c-3.7 4-8.9 6.2-14.2 6.2-10.2 0-17-5.9-17-14.7 0-9.4 7.7-15.7 19.3-15.7 4.4 0 8.4.8 11.7 2.2v-3.2c0-5.2-4-8.2-11-8.2-3.2 0-7.2 1.3-10.3 3.1-2.4 1.4-3 1.3-5.7-2.7-2.6-3.9-2.5-4.7 0-6.3 4.7-3.1 11.2-5 17.2-5 13.4 0 21.7 7.3 21.7 19.5zM224 162.1c0 3.4 2.8 5.6 7.1 5.6 5.2 0 9.8-2.5 12.6-6.7v-4.4c-2.7-1-6.1-1.6-9-1.6-6.5 0-10.7 3-10.7 7.1z"/><path id="XMLID_7_" class="st1" d="M302 130.2c2.5 1.5 2.6 2.2-.1 6.4-2.6 4-3 4.2-5.7 2.8-2.1-1.1-5.4-2-8.2-2-8.6 0-14.3 5.7-14.3 14.2 0 8.9 5.7 14.8 14.3 14.8 3 0 6.7-1.1 9.1-2.5 2.5-1.5 3-1.3 5.7 2.5 2.4 3.6 2.3 4.4.2 5.9-3.8 2.7-9.8 4.7-15.2 4.7-15.8 0-26.5-10.2-26.5-25.4s10.6-25.2 26.6-25.2c4.8 0 10.5 1.7 14.1 3.8z"/><path id="XMLID_6_" class="st1" d="M353.8 170.3c2 2.5 1.2 3.4-3.8 5.2-5 1.8-5.7 1.7-7.5-.6L328.3 156l-6.4 6.1v12.3c0 1-1 2-2.5 2h-6.9c-1.5 0-2.5-1-2.5-2v-65.1c0-3.2.9-3.5 5.9-3.5 5.7 0 5.9.4 5.9 3.5v37l19.4-18.6c2.2-2 3.4-1.9 7.1.6 4.2 2.7 4.5 3.5 2.5 5.4l-14.5 14.1 17.5 22.5z"/></g><g id="XMLID_13_"><path id="XMLID_5_" transform="rotate(161.478 88.892 150.546)" class="st1" d="M82.7 144.6H95v11.9H82.7z"/><g id="XMLID_14_"><path id="XMLID_4_" transform="rotate(161.478 88.892 150.546)" class="st1" d="M82.7 144.6H95v11.9H82.7z"/><path id="XMLID_15_" class="st1" d="M128.9 138.5c-9-30-22-37-52-28s-37 22-28 52 22 37 52 28 37-22 28-52zm-15.2 19.4l-5.7 1.9 2 5.9c.8 2.4-.5 5-2.9 5.7-.5.1-1 .3-1.5.2-1.8-.1-3.6-1.3-4.2-3.1l-2-5.9-11.7 3.9 2 5.9c.8 2.4-.5 5-2.9 5.7-.5.1-1 .3-1.5.2-1.8-.1-3.6-1.3-4.2-3.1l-2-5.9-5.7 1.9c-.5.1-1 .3-1.5.2-1.8-.1-3.6-1.3-4.2-3.1-.8-2.4.5-5 2.9-5.7l5.7-1.9-3.8-11.2-5.7 1.9c-.5.1-1 .3-1.5.2-1.8-.1-3.6-1.3-4.2-3.1-.8-2.4.5-5 2.9-5.7l5.7-1.9-2-5.9c-.8-2.4.5-5 2.9-5.7 2.4-.8 5 .5 5.7 2.9l2 5.9 11.7-3.9-2-5.9c-.8-2.4.5-5 2.9-5.7 2.4-.8 5 .5 5.7 2.9l2 5.9 5.7-1.9c2.4-.8 5 .5 5.7 2.9.8 2.4-.5 5-2.9 5.7l-5.7 1.9 3.8 11.2 5.7-1.9c2.4-.8 5 .5 5.7 2.9.8 2.4-.5 5-2.9 5.7z"/></g></g></g></svg>